# Created by FreeCAD <http://www.freecadweb.org>
v 1.000000 0.000000 0.000000
v 0.623490 0.781832 0.000000
v 1.000000 0.000000 2.000000
v 0.623490 0.781832 2.000000
v -0.222521 0.974928 0.000000
v -0.222521 0.974928 2.000000
v -0.900969 0.433884 0.000000
v -0.900969 0.433884 2.000000
v -0.900969 -0.433884 0.000000
v -0.900969 -0.433884 2.000000
v -0.222521 -0.974928 0.000000
v -0.222521 -0.974928 2.000000
v 0.623490 -0.781832 0.000000
v 0.623490 -0.781832 2.000000
vn 0.900969 0.433884 -0.000000
vn 0.900969 0.433884 0.000000
vn 0.222521 0.974928 -0.000000
vn 0.222521 0.974928 0.000000
vn -0.623490 0.781831 0.000000
vn -0.623490 0.781831 0.000000
vn -1.000000 0.000000 0.000000
vn -1.000000 -0.000000 0.000000
vn -0.623490 -0.781831 0.000000
vn -0.623490 -0.781831 0.000000
vn 0.222521 -0.974928 0.000000
vn 0.222521 -0.974928 0.000000
vn 0.900969 -0.433884 0.000000
vn 0.900969 -0.433884 0.000000
vn 0.000000 0.000000 -1.000000
vn 0.000000 0.000000 -1.000000
vn 0.000000 -0.000000 -1.000000
vn 0.000000 0.000000 -1.000000
vn 0.000000 0.000000 -1.000000
vn 0.000000 0.000000 1.000000
vn 0.000000 0.000000 1.000000
vn 0.000000 0.000000 1.000000
vn 0.000000 0.000000 1.000000
vn 0.000000 0.000000 1.000000
f 1//1 2//1 3//1
f 3//2 2//2 4//2
f 2//3 5//3 4//3
f 4//4 5//4 6//4
f 5//5 7//5 6//5
f 6//6 7//6 8//6
f 7//7 9//7 8//7
f 8//8 9//8 10//8
f 9//9 11//9 10//9
f 10//10 11//10 12//10
f 11//11 13//11 12//11
f 12//12 13//12 14//12
f 13//13 1//13 14//13
f 14//14 1//14 3//14
f 9//15 1//15 11//15
f 11//16 1//16 13//16
f 5//17 2//17 7//17
f 7//18 2//18 9//18
f 9//19 2//19 1//19
f 3//20 10//20 12//20
f 3//21 12//21 14//21
f 4//22 6//22 8//22
f 4//23 8//23 10//23
f 4//24 10//24 3//24
